<svg width="24" height="24" viewBox="0 0 24 24" fill="none" xmlns="http://www.w3.org/2000/svg">
<path fill-rule="evenodd" clip-rule="evenodd" d="M11.9527 2.10001H12.0382C13.6448 2.1 14.9092 2.09999 15.9236 2.18808C16.9584 2.27794 17.8181 2.46462 18.5899 2.88895C19.6506 3.47204 20.5234 4.34488 21.1065 5.40552C21.5308 6.17738 21.7175 7.03705 21.8074 8.07184C21.8955 9.08629 21.8955 10.3507 21.8955 11.9573V12.0427C21.8955 13.6493 21.8955 14.9137 21.8074 15.9282C21.7175 16.963 21.5308 17.8226 21.1065 18.5945C20.5234 19.6551 19.6506 20.528 18.5899 21.1111C17.8181 21.5354 16.9584 21.7221 15.9236 21.8119C14.9092 21.9 13.6448 21.9 12.0382 21.9H11.9527C10.3461 21.9 9.08174 21.9 8.06728 21.8119C7.03249 21.7221 6.17283 21.5354 5.40096 21.1111C4.34033 20.528 3.46749 19.6551 2.8844 18.5945C2.46006 17.8226 2.27338 16.963 2.18353 15.9282C2.09544 14.9137 2.09544 13.6493 2.09545 12.0427V11.9573C2.09544 10.3507 2.09544 9.0863 2.18353 8.07184C2.27338 7.03705 2.46006 6.17738 2.8844 5.40552C3.46749 4.34488 4.34033 3.47204 5.40096 2.88895C6.17283 2.46462 7.03249 2.27794 8.06728 2.18808C9.08174 2.09999 10.3461 2.1 11.9527 2.10001ZM8.223 3.98134C7.30687 4.06089 6.72885 4.21302 6.26812 4.46631C5.5068 4.88484 4.88029 5.51136 4.46175 6.27267C4.20846 6.7334 4.05633 7.31142 3.97678 8.22755C3.89624 9.15504 3.89545 10.3414 3.89545 12C3.89545 13.6586 3.89624 14.845 3.97678 15.7725C4.05633 16.6886 4.20846 17.2666 4.46175 17.7273C4.88029 18.4887 5.5068 19.1152 6.26812 19.5337C6.72885 19.787 7.30687 19.9391 8.223 20.0187C9.15049 20.0992 10.3368 20.1 11.9955 20.1C13.6541 20.1 14.8404 20.0992 15.7679 20.0187C16.684 19.9391 17.2621 19.787 17.7228 19.5337C18.4841 19.1152 19.1106 18.4887 19.5292 17.7273C19.7824 17.2666 19.9346 16.6886 20.0141 15.7725C20.0947 14.845 20.0955 13.6586 20.0955 12C20.0955 10.3414 20.0947 9.15504 20.0141 8.22755C19.9346 7.31142 19.7824 6.7334 19.5292 6.27267C19.1106 5.51136 18.4841 4.88484 17.7228 4.46631C17.2621 4.21302 16.684 4.06089 15.7679 3.98134C14.8404 3.9008 13.6541 3.90001 11.9955 3.90001C10.3368 3.90001 9.15049 3.9008 8.223 3.98134ZM8.58699 5.62174H8.65814C9.02112 5.62172 9.35139 5.62169 9.62591 5.64657C9.92175 5.67339 10.2399 5.73468 10.5463 5.91156C10.8752 6.10142 11.1483 6.3745 11.3381 6.70336C11.515 7.00973 11.5763 7.32793 11.6031 7.62377C11.628 7.89829 11.628 8.22857 11.6279 8.59155V8.66268C11.628 9.02567 11.628 9.35594 11.6031 9.63047C11.5763 9.9263 11.515 10.2445 11.3381 10.5509C11.1483 10.8797 10.8752 11.1528 10.5463 11.3427C10.2399 11.5196 9.92175 11.5808 9.62591 11.6077C9.35139 11.6325 9.02111 11.6325 8.65813 11.6325H8.587C8.22401 11.6325 7.89373 11.6325 7.61921 11.6077C7.32338 11.5808 7.00518 11.5196 6.6988 11.3427C6.36995 11.1528 6.09687 10.8797 5.90701 10.5509C5.73012 10.2445 5.66883 9.9263 5.64202 9.63047C5.61714 9.35595 5.61716 9.02567 5.61719 8.66269V8.59154C5.61716 8.22856 5.61714 7.89829 5.64202 7.62377C5.66883 7.32793 5.73012 7.00973 5.90701 6.70336C6.09687 6.37451 6.36995 6.10143 6.6988 5.91156C7.00518 5.73468 7.32338 5.67339 7.61921 5.64657C7.89373 5.62169 8.22401 5.62172 8.58699 5.62174ZM7.5982 7.47075C7.54342 7.50251 7.49793 7.54802 7.46618 7.6028C7.4618 7.61334 7.4461 7.6601 7.43467 7.78624C7.41805 7.9696 7.41719 8.21701 7.41719 8.62712C7.41719 9.03722 7.41805 9.28463 7.43467 9.46799C7.4461 9.59413 7.4618 9.64089 7.46618 9.65143C7.49794 9.70622 7.54346 9.75175 7.59825 9.7835C7.60879 9.78788 7.65556 9.80358 7.78169 9.81501C7.96505 9.83162 8.21246 9.83249 8.62256 9.83249C9.03267 9.83249 9.28007 9.83162 9.46344 9.81501C9.58957 9.80357 9.63634 9.78788 9.64688 9.7835C9.70166 9.75174 9.74719 9.70622 9.77895 9.65144C9.78332 9.6409 9.79902 9.59413 9.81045 9.46799C9.82707 9.28463 9.82793 9.03722 9.82793 8.62712C9.82793 8.21701 9.82707 7.9696 9.81045 7.78624C9.79902 7.66012 9.78333 7.61335 9.77895 7.6028C9.74719 7.54802 9.70166 7.50249 9.64688 7.47073C9.63634 7.46635 9.58957 7.45066 9.46344 7.43923C9.28007 7.42261 9.03267 7.42175 8.62256 7.42175C8.21246 7.42175 7.96505 7.42261 7.78169 7.43923C7.65555 7.45066 7.60874 7.46637 7.5982 7.47075ZM15.3328 5.62174H15.4039C15.7669 5.62172 16.0972 5.62169 16.3717 5.64657C16.6675 5.67339 16.9857 5.73468 17.2921 5.91156C17.621 6.10143 17.894 6.37451 18.0839 6.70336C18.2608 7.00973 18.3221 7.32793 18.3489 7.62377C18.3738 7.89829 18.3737 8.22857 18.3737 8.59155V8.66268C18.3737 9.02567 18.3738 9.35594 18.3489 9.63047C18.3221 9.9263 18.2608 10.2445 18.0839 10.5509C17.894 10.8797 17.621 11.1528 17.2921 11.3427C16.9857 11.5196 16.6675 11.5808 16.3717 11.6077C16.0972 11.6325 15.7669 11.6325 15.4039 11.6325H15.3328C14.9698 11.6325 14.6395 11.6325 14.365 11.6077C14.0692 11.5808 13.751 11.5196 13.4446 11.3427C13.1157 11.1528 12.8427 10.8797 12.6528 10.5509C12.4759 10.2445 12.4146 9.9263 12.3878 9.63047C12.3629 9.35594 12.3629 9.02567 12.363 8.66268V8.59155C12.3629 8.22857 12.3629 7.89829 12.3878 7.62377C12.4146 7.32793 12.4759 7.00973 12.6528 6.70336C12.8427 6.3745 13.1157 6.10142 13.4446 5.91156C13.751 5.73468 14.0692 5.67339 14.365 5.64657C14.6395 5.62169 14.9698 5.62172 15.3328 5.62174ZM14.344 7.47075C14.2892 7.50251 14.2437 7.54802 14.212 7.6028C14.2076 7.61335 14.1919 7.66012 14.1805 7.78624C14.1638 7.9696 14.163 8.21701 14.163 8.62712C14.163 9.03722 14.1638 9.28463 14.1805 9.46799C14.1919 9.59414 14.2076 9.6409 14.212 9.65144C14.2437 9.70622 14.2892 9.75175 14.344 9.7835C14.3546 9.78788 14.4013 9.80358 14.5275 9.81501C14.7108 9.83162 14.9582 9.83249 15.3683 9.83249C15.7784 9.83249 16.0259 9.83162 16.2092 9.81501C16.3354 9.80357 16.3821 9.78788 16.3927 9.7835C16.4474 9.75174 16.493 9.70622 16.5247 9.65143C16.5291 9.64088 16.5448 9.59411 16.5562 9.46799C16.5729 9.28463 16.5737 9.03722 16.5737 8.62712C16.5737 8.21701 16.5729 7.9696 16.5562 7.78624C16.5448 7.66012 16.5291 7.61335 16.5247 7.6028C16.493 7.54802 16.4474 7.50249 16.3927 7.47073C16.3821 7.46635 16.3353 7.45066 16.2092 7.43923C16.0259 7.42261 15.7784 7.42175 15.3683 7.42175C14.9582 7.42175 14.7108 7.42261 14.5275 7.43923C14.4013 7.45066 14.3545 7.46637 14.344 7.47075ZM8.587 12.3675H8.65813C9.02111 12.3675 9.35139 12.3675 9.62591 12.3924C9.92175 12.4192 10.2399 12.4805 10.5463 12.6573C10.8752 12.8472 11.1483 13.1203 11.3381 13.4491C11.515 13.7555 11.5763 14.0737 11.6031 14.3695C11.628 14.6441 11.628 14.9743 11.6279 15.3373V15.4085C11.628 15.7714 11.628 16.1017 11.6031 16.3762C11.5763 16.6721 11.515 16.9903 11.3381 17.2967C11.1483 17.6255 10.8752 17.8986 10.5463 18.0885C10.2399 18.2653 9.92175 18.3266 9.62591 18.3534C9.35139 18.3783 9.02111 18.3783 8.65813 18.3783H8.587C8.22401 18.3783 7.89373 18.3783 7.61921 18.3534C7.32338 18.3266 7.00518 18.2653 6.6988 18.0885C6.36995 17.8986 6.09687 17.6255 5.90701 17.2967C5.73012 16.9903 5.66883 16.6721 5.64202 16.3762C5.61714 16.1017 5.61716 15.7715 5.61719 15.4085V15.3373C5.61716 14.9743 5.61714 14.6441 5.64202 14.3695C5.66883 14.0737 5.73012 13.7555 5.90701 13.4491C6.09687 13.1203 6.36995 12.8472 6.6988 12.6573C7.00518 12.4805 7.32338 12.4192 7.61921 12.3924C7.89373 12.3675 8.22401 12.3675 8.587 12.3675ZM7.5982 14.2165C7.54342 14.2483 7.49794 14.2938 7.46618 14.3486C7.4618 14.3591 7.4461 14.4059 7.43467 14.532C7.41805 14.7154 7.41719 14.9628 7.41719 15.3729C7.41719 15.783 7.41805 16.0304 7.43467 16.2138C7.4461 16.3399 7.4618 16.3867 7.46618 16.3972C7.49793 16.452 7.54346 16.4975 7.59825 16.5293C7.6088 16.5337 7.65557 16.5494 7.78169 16.5608C7.96505 16.5774 8.21246 16.5783 8.62256 16.5783C9.03267 16.5783 9.28007 16.5774 9.46344 16.5608C9.58956 16.5494 9.63633 16.5337 9.64688 16.5293C9.70166 16.4975 9.74719 16.452 9.77895 16.3972C9.78333 16.3867 9.79902 16.3399 9.81045 16.2138C9.82707 16.0304 9.82793 15.783 9.82793 15.3729C9.82793 14.9628 9.82707 14.7154 9.81045 14.532C9.79902 14.4059 9.78333 14.3591 9.77895 14.3486C9.74719 14.2938 9.70166 14.2483 9.64688 14.2165C9.63633 14.2121 9.58956 14.1964 9.46344 14.185C9.28007 14.1684 9.03267 14.1675 8.62256 14.1675C8.21246 14.1675 7.96505 14.1684 7.78169 14.185C7.65556 14.1964 7.60875 14.2121 7.5982 14.2165ZM15.3328 12.3675H15.4039C15.7669 12.3675 16.0972 12.3675 16.3717 12.3924C16.6675 12.4192 16.9857 12.4805 17.2921 12.6573C17.621 12.8472 17.894 13.1203 18.0839 13.4491C18.2608 13.7555 18.3221 14.0737 18.3489 14.3695C18.3738 14.6441 18.3737 14.9743 18.3737 15.3373V15.4085C18.3737 15.7714 18.3738 16.1017 18.3489 16.3762C18.3221 16.6721 18.2608 16.9903 18.0839 17.2967C17.894 17.6255 17.621 17.8986 17.2921 18.0885C16.9857 18.2653 16.6675 18.3266 16.3717 18.3534C16.0972 18.3783 15.7669 18.3783 15.4039 18.3783H15.3328C14.9698 18.3783 14.6395 18.3783 14.365 18.3534C14.0692 18.3266 13.751 18.2653 13.4446 18.0885C13.1157 17.8986 12.8427 17.6255 12.6528 17.2967C12.4759 16.9903 12.4146 16.6721 12.3878 16.3762C12.3629 16.1017 12.3629 15.7714 12.363 15.4085V15.3373C12.3629 14.9743 12.3629 14.6441 12.3878 14.3695C12.4146 14.0737 12.4759 13.7555 12.6528 13.4491C12.8427 13.1203 13.1157 12.8472 13.4446 12.6573C13.751 12.4805 14.0692 12.4192 14.365 12.3924C14.6395 12.3675 14.9698 12.3675 15.3328 12.3675ZM14.344 14.2165C14.2892 14.2483 14.2437 14.2938 14.212 14.3486C14.2076 14.3591 14.1919 14.4059 14.1805 14.532C14.1638 14.7154 14.163 14.9628 14.163 15.3729C14.163 15.783 14.1638 16.0304 14.1805 16.2138C14.1919 16.3399 14.2076 16.3867 14.212 16.3972C14.2437 16.452 14.2892 16.4975 14.344 16.5293C14.3546 16.5337 14.4013 16.5494 14.5275 16.5608C14.7108 16.5774 14.9582 16.5783 15.3683 16.5783C15.7784 16.5783 16.0259 16.5774 16.2092 16.5608C16.3353 16.5494 16.3821 16.5337 16.3927 16.5293C16.4474 16.4975 16.493 16.452 16.5247 16.3972C16.5291 16.3867 16.5448 16.3399 16.5562 16.2138C16.5729 16.0304 16.5737 15.783 16.5737 15.3729C16.5737 14.9628 16.5729 14.7154 16.5562 14.532C16.5448 14.4059 16.5291 14.3591 16.5247 14.3486C16.493 14.2938 16.4474 14.2483 16.3927 14.2165C16.3821 14.2121 16.3354 14.1964 16.2092 14.185C16.0259 14.1684 15.7784 14.1675 15.3683 14.1675C14.9582 14.1675 14.7108 14.1684 14.5275 14.185C14.4013 14.1964 14.3545 14.2122 14.344 14.2165Z" fill="white"/>
</svg>
