<svg width="25" height="24" viewBox="0 0 25 24" fill="none" xmlns="http://www.w3.org/2000/svg">
<path fill-rule="evenodd" clip-rule="evenodd" d="M9.87402 5.29487C9.73103 5.27261 9.57373 5.27012 9.06835 5.27012H8.64907C7.61537 5.27012 6.90587 5.27114 6.36055 5.32505C5.82955 5.37754 5.55184 5.47313 5.35289 5.60122C5.10321 5.76198 4.89084 5.97434 4.73009 6.22402C4.602 6.42297 4.50641 6.70068 4.45392 7.23169C4.40001 7.777 4.39899 8.4865 4.39899 9.5202V13.6368C4.39899 15.0669 4.4009 16.049 4.50005 16.7865C4.59573 17.4981 4.76685 17.8459 5.00814 18.0872C5.24943 18.3285 5.59721 18.4996 6.30884 18.5953C7.04637 18.6944 8.02843 18.6964 9.45856 18.6964H15.5404C16.9705 18.6964 17.9526 18.6944 18.6901 18.5953C19.4017 18.4996 19.7495 18.3285 19.9908 18.0872C20.2321 17.8459 20.4032 17.4981 20.4989 16.7865C20.5981 16.049 20.6 15.0669 20.6 13.6368V12.6627C20.6 11.2934 20.5982 10.3531 20.5067 9.64419C20.4182 8.959 20.2595 8.62015 20.0376 8.38348C20.0069 8.35073 19.9752 8.31899 19.9424 8.28829C19.7058 8.06647 19.3669 7.90773 18.6817 7.81926C17.9728 7.72772 17.0326 7.72596 15.6632 7.72596H14.9576C14.9364 7.72596 14.9155 7.72597 14.8949 7.72597C14.4778 7.72608 14.1729 7.72616 13.875 7.67978C13.257 7.58357 12.6714 7.33939 12.1682 6.96803C11.9256 6.78901 11.7111 6.57238 11.4176 6.27593C11.4031 6.26128 11.3884 6.24644 11.3735 6.2314C11.0179 5.87234 10.9054 5.76234 10.789 5.67641C10.5192 5.47734 10.2053 5.34645 9.87402 5.29487ZM9.13099 3.47011C9.54816 3.47 9.85299 3.46992 10.1509 3.5163C10.7689 3.61251 11.3545 3.85669 11.8577 4.22805C12.1003 4.40708 12.3148 4.6237 12.6083 4.92017C12.6228 4.93481 12.6375 4.94965 12.6524 4.96468C13.008 5.32374 13.1205 5.43374 13.2369 5.51967C13.5067 5.71873 13.8206 5.84963 14.1519 5.90121C14.2949 5.92347 14.4522 5.92596 14.9576 5.92596L15.7247 5.92596C17.0174 5.92593 18.0745 5.92591 18.9122 6.03408C19.787 6.14703 20.5504 6.39112 21.1734 6.97497C21.2345 7.03223 21.2937 7.09146 21.351 7.15255C21.9348 7.77548 22.1789 8.53894 22.2918 9.41369C22.4 10.2514 22.4 11.3085 22.4 12.6012V13.7012C22.4 15.0511 22.4 16.1548 22.2828 17.0263C22.1603 17.9376 21.8951 18.7285 21.2636 19.36C20.6321 19.9915 19.8412 20.2567 18.93 20.3792C18.0584 20.4964 16.9547 20.4964 15.6048 20.4964H9.39419C8.04427 20.4964 6.94053 20.4964 6.069 20.3792C5.15776 20.2567 4.36682 19.9915 3.73535 19.36C3.10388 18.7285 2.83862 17.9376 2.71611 17.0263C2.59893 16.1548 2.59896 15.0511 2.59898 13.7012L2.59899 9.47416C2.59897 8.49776 2.59896 7.69893 2.66265 7.05462C2.72875 6.38589 2.87036 5.78744 3.21665 5.2496C3.51653 4.78382 3.91269 4.38767 4.37847 4.08778C4.91631 3.74149 5.51476 3.59988 6.18348 3.53378C6.8278 3.47009 7.62662 3.4701 8.60303 3.47012L9.06835 3.47012C9.08951 3.47012 9.11039 3.47011 9.13099 3.47011Z" fill="white"/>
</svg>
