<svg width="25" height="24" viewBox="0 0 25 24" fill="none" xmlns="http://www.w3.org/2000/svg">
<path fill-rule="evenodd" clip-rule="evenodd" d="M4.71594 9.75001C4.5098 10.4644 4.39935 11.2193 4.39935 12C4.39935 12.7807 4.5098 13.5357 4.71594 14.25H8.12611C8.04434 13.5521 7.99935 12.8027 7.99935 12C7.99935 11.1973 8.04434 10.4479 8.12611 9.75001H4.71594ZM5.48299 7.95001H8.43953C8.7972 6.43377 9.33862 5.23136 9.93409 4.31463C8.04446 4.94507 6.4647 6.25292 5.48299 7.95001ZM12.4993 4.07649C11.8477 4.61029 10.8767 5.81314 10.294 7.95001H14.7047C14.122 5.81314 13.151 4.61029 12.4993 4.07649ZM15.0602 9.75001H9.93852C9.84986 10.4311 9.79935 11.1795 9.79935 12C9.79935 12.8205 9.84986 13.5689 9.93852 14.25H15.0602C15.1488 13.5689 15.1994 12.8205 15.1994 12C15.1994 11.1795 15.1488 10.4311 15.0602 9.75001ZM16.8726 14.25C16.9544 13.5521 16.9993 12.8027 16.9993 12C16.9993 11.1973 16.9544 10.4479 16.8726 9.75001H20.283C20.4889 10.4635 20.5993 11.2182 20.5993 12C20.5993 12.7818 20.4889 13.5365 20.283 14.25H16.8726ZM14.7047 16.05H10.294C10.8767 18.1869 11.8477 19.3897 12.4993 19.9235C13.151 19.3897 14.122 18.1869 14.7047 16.05ZM9.93409 19.6854C9.33862 18.7687 8.7972 17.5662 8.43953 16.05L5.48299 16.05C6.4647 17.7471 8.04446 19.0549 9.93409 19.6854ZM15.0646 19.6854C15.6601 18.7686 16.2015 17.5662 16.5592 16.05L19.516 16.05C18.534 17.7475 16.9539 19.0551 15.0646 19.6854ZM19.516 7.95001H16.5592C16.2015 6.43378 15.6601 5.23137 15.0646 4.31464C16.9539 4.94495 18.534 6.25248 19.516 7.95001ZM2.59935 12C2.59935 6.53239 7.03173 2.10001 12.4993 2.10001C16.7494 2.10001 20.3717 4.77767 21.7758 8.53497C22.1792 9.61462 22.3993 10.7826 22.3993 12C22.3993 13.2174 22.1792 14.3854 21.7758 15.465C20.3717 19.2223 16.7494 21.9 12.4993 21.9C7.03173 21.9 2.59935 17.4676 2.59935 12Z" fill="black" fill-opacity="0.8"/>
</svg>
