<svg width="24" height="24" viewBox="0 0 24 24" fill="none" xmlns="http://www.w3.org/2000/svg">
<path fill-rule="evenodd" clip-rule="evenodd" d="M7.99754 5.12656C6.6628 5.12656 5.54636 6.23896 5.54636 7.65411C5.54636 9.06927 6.6628 10.1817 7.99754 10.1817C9.33228 10.1817 10.4487 9.06927 10.4487 7.65411C10.4487 6.23896 9.33228 5.12656 7.99754 5.12656ZM3.74636 7.65411C3.74636 5.2833 5.63067 3.32656 7.99754 3.32656C10.3644 3.32656 12.2487 5.2833 12.2487 7.65411C12.2487 10.0249 10.3644 11.9817 7.99754 11.9817C5.63067 11.9817 3.74636 10.0249 3.74636 7.65411ZM16.2467 7.98148C15.4808 7.98148 14.8236 8.62335 14.8236 9.46058C14.8236 10.2978 15.4808 10.9397 16.2467 10.9397C17.0125 10.9397 17.6697 10.2978 17.6697 9.46058C17.6697 8.62335 17.0125 7.98148 16.2467 7.98148ZM13.0236 9.46058C13.0236 7.66993 14.4465 6.18148 16.2467 6.18148C18.0468 6.18148 19.4697 7.66993 19.4697 9.46058C19.4697 11.2512 18.0468 12.7397 16.2467 12.7397C14.4465 12.7397 13.0236 11.2512 13.0236 9.46058ZM3.75925 17.4363C2.96084 18.1734 2.65898 19.0374 2.6098 19.5404C2.56143 20.0351 2.12119 20.3969 1.62649 20.3485C1.1318 20.3002 0.769975 19.8599 0.818343 19.3652C0.908799 18.44 1.40284 17.1619 2.53834 16.1137C3.69364 15.0473 5.45743 14.2684 7.99754 14.2684C10.5376 14.2684 12.3014 15.0473 13.4567 16.1137C14.5922 17.1619 15.0863 18.44 15.1767 19.3652C15.2251 19.8599 14.8633 20.3002 14.3686 20.3485C13.8739 20.3969 13.4336 20.0351 13.3853 19.5404C13.3361 19.0374 13.0342 18.1734 12.2358 17.4363C11.4572 16.7176 10.1491 16.0684 7.99754 16.0684C5.84599 16.0684 4.53787 16.7176 3.75925 17.4363ZM15.1031 15.1684C15.1031 14.6713 15.5061 14.2684 16.0031 14.2684C18.5432 14.2684 20.307 15.0473 21.4623 16.1137C22.5978 17.1619 23.0919 18.44 23.1823 19.3652C23.2307 19.8599 22.8689 20.3002 22.3742 20.3485C21.8795 20.3969 21.4392 20.0351 21.3909 19.5404C21.3417 19.0374 21.0398 18.1734 20.2414 17.4363C19.4628 16.7176 18.1547 16.0684 16.0031 16.0684C15.5061 16.0684 15.1031 15.6654 15.1031 15.1684Z" fill="white"/>
</svg>
